<svg viewBox="0 0 24 24" fill="none" xmlns="http://www.w3.org/2000/svg"><path fill-rule="evenodd" clip-rule="evenodd" d="M9.818 1a3.273 3.273 0 0 0-3.273 3.273v1.09H3.273A3.273 3.273 0 0 0 0 8.637v10.91a3.273 3.273 0 0 0 3.273 3.272h17.454A3.273 3.273 0 0 0 24 19.545V8.636a3.273 3.273 0 0 0-3.273-3.272h-3.273V4.273A3.273 3.273 0 0 0 14.182 1H9.818Zm5.455 4.364V4.273a1.09 1.09 0 0 0-1.091-1.091H9.818a1.09 1.09 0 0 0-1.09 1.09v1.092h6.545ZM8.727 7.545h6.546v13.091H8.727V7.546Zm-2.182 0H3.273a1.09 1.09 0 0 0-1.091 1.091v10.91c0 .602.488 1.09 1.09 1.09h3.273V7.546Zm10.91 13.091V7.546h3.272a1.09 1.09 0 0 1 1.091 1.09v10.91a1.09 1.09 0 0 1-1.09 1.09h-3.274Z" fill="#A5A4AB"/></svg>